<?xml version="1.0" standalone="no"?>
<svg xmlns="http://www.w3.org/2000/svg" xmlns:xlink="http://www.w3.org/1999/xlink" fill="#000000" width="128" height="128" viewBox="0 0 1000 1000" version="1.1" enable-background="new 0 0 1000 1000" xml:space="preserve">

<g>

<g transform="translate(0.000000,511.000000) scale(0.100000,-0.100000)">

<path d="M5972.1,4957.9c-15.4-30.8-34.7-96.4-40.5-146.5c-50.1-341.3-262.2-711.4-495.5-861.8c-142.7-92.5-268-123.4-460.8-111.8c-194.7,11.6-331.6,77.1-485.9,231.4c-131.1,135-277.6,414.5-347,661.3c-46.3,165.8-79,221.7-131.1,221.7c-42.4,0-805.9-187-861.8-212.1c-71.3-30.8-73.3-121.5-9.6-318.1c73.3-217.9,119.5-489.7,119.5-692.1c0-308.5-96.4-551.4-298.8-755.8c-136.9-138.8-285.3-215.9-466.6-242.9c-252.6-38.6-248.7-17.4-135-692.2l90.6-537.9l-129.2-133c-219.8-221.7-395.2-559.1-522.5-1006.4c-55.9-196.7-71.3-273.8-208.2-1019.9c-152.3-840.6-501.3-2253.8-723-2922.8c-65.6-202.4-57.8-266.1,34.7-285.4c54-11.6,967.8-127.2,1002.6-127.2c9.6,0,38.6-44.3,61.7-96.4c146.5-323.9,470.4-518.7,931.2-557.2c327.8-27,647.8,25.1,856,140.8l81,44.3l121.5-77.1C4221.5-4707.1,4549.2-4790,4956-4790c237.1,0,306.6,7.7,464.6,48.2c173.5,46.3,381.7,138.8,537.9,237.1c67.5,42.4,69.4,42.4,119.6,7.7c379.8-277.6,1004.5-279.6,1494.2-5.8c156.2,86.8,349,266.1,451.1,418.4l79.1,119.5l507,79c281.5,42.4,522.5,90.6,539.8,104.1c48.2,40.5,34.7,142.7-67.5,480.1c-376,1264.8-642,2344.4-723,2942.1c-88.7,657.5-206.3,1087.4-385.6,1409.4c-69.4,125.3-320,402.9-403,445.4c-34.7,19.3-32.8,38.6,44.4,553.3c44.4,293.1,77.1,549.5,69.4,568.8c-17.4,57.8-86.8,90.6-212.1,106c-347,38.6-620.8,331.6-696,744.2c-40.5,217.9-23.1,534.1,42.4,838.7c28.9,127.2,55.9,275.7,59.8,327.8c13.5,146.5-17.4,165.8-433.8,279.6c-192.8,54-372.1,96.4-399.1,96.4C6012.6,5010,5989.4,4992.7,5972.1,4957.9z M6407.8,4622.5c86.8-21.2,160-42.4,163.9-46.3c1.9-1.9-15.4-111.8-42.5-242.9c-61.7-308.5-77.1-561-50.1-775c59.8-480.1,285.4-838.7,640.1-1016.1c84.8-42.4,169.6-77.1,187-77.1c82.9-1.9,82.9-15.4,11.6-416.4c-36.6-210.2-71.3-402.9-77.1-426.1c-9.6-42.4-19.3-44.3-214-44.3c-175.4,0-214,5.8-295,48.2c-52,25.1-98.3,59.8-106,77.1c-5.8,15.4,2,79,17.4,140.7c34.7,135,17.4,260.3-55.9,404.9c-52,104.1-127.2,175.5-250.6,241c-65.5,34.7-109.9,42.4-271.8,42.4c-175.4,0-200.5-3.9-285.3-54c-94.5-55.9-221.7-171.6-254.5-231.4c-17.3-30.8-28.9-27-113.8,54c-175.4,161.9-449.2,260.3-655.5,231.4c-241-30.8-291.1-100.3-277.6-395.2c7.7-212.1,59.8-347,179.3-480.1l71.3-79H3724.1c-566.8,0-1004.5,7.7-1004.5,17.3s-27,196.7-57.8,418.4c-32.8,221.7-54,412.6-48.2,426.1c3.9,13.5,25.1,25.1,46.3,25.1c19.3,0,106,34.7,192.8,79c273.8,136.9,547.5,445.4,636.2,717.2c96.4,296.9,102.2,676.7,15.4,1016.1c-27,100.3-52.1,194.7-54,210.1c-5.8,21.2,40.5,40.5,175.4,71.3c100.3,25.1,192.8,42.4,204.4,38.6c11.6-5.8,30.8-46.3,42.4-94.5c13.5-46.3,54-158.1,90.6-244.9c231.4-537.9,624.7-821.3,1095.1-784.7c505.1,36.6,904.2,410.7,1104.7,1033.4c27,84.8,57.8,156.2,69.4,156.2C6242,4663,6321.1,4645.6,6407.8,4622.5z M6168.8,2239.5c138.8-104.1,169.7-242.9,90.6-399.1c-61.7-121.5-53.9-189,27-237.1c117.6-67.5,152.3-260.3,67.5-374c-27-36.6-65.5-94.5-88.7-129.2c-71.3-109.9-192.8-106-300.8,7.7c-34.7,38.6-63.6,88.7-63.6,111.8c0,82.9-131.1,156.2-246.8,136.9c-84.8-13.5-204.4,15.4-264.2,63.6c-119.5,98.3-144.6,264.1-55.9,370.2c61.7,73.3,179.3,135,254.5,135c82.9,0,150.4,61.7,163.9,150.4c13.5,81,106,189,173.5,202.4C6001,2295.4,6118.6,2276.1,6168.8,2239.5z M5025.5,2185.5c52.1-27,111.8-61.7,131.1-77.1c34.7-27,34.7-28.9-11.6-90.6c-27-34.7-67.5-102.2-92.5-150.4c-23.1-48.2-46.3-90.6-50.1-94.5c-1.9-1.9-36.6,19.3-77.1,48.2c-86.8,67.5-161.9,219.8-161.9,331.6v81h82.9C4896.3,2233.7,4965.7,2214.4,5025.5,2185.5z M5098.7,1238.8c34.7-34.7,38.6-50.1,13.5-77.1c-9.6-9.6-36.6-73.3-61.7-142.7c-77.1-227.5-44.3-609.2,63.6-717.2c36.6-36.6,55.9-38.6,235.2-30.8c158.1,7.7,217.9,19.3,304.6,57.8c125.3,57.8,264.1,187,322,298.8l38.6,77.1l179.3-3.9c158.1-3.8,192.8-9.6,268-54c204.4-119.5,524.4-142.7,694.1-50.1c82.9,46.3,84.8,50.1,102.2,171.6c15.4,115.7-1.9,304.6-38.6,439.6c-11.6,38.6-5.8,42.4,63.6,42.4c92.5,0,183.2-59.8,325.8-215.9c231.4-254.5,350.9-624.7,497.4-1548.2c90.6-563,260.3-1253.2,609.2-2481.3c84.8-298.8,152.3-543.7,150.4-545.6c-13.5-9.6-796.3-123.4-802-115.7c-3.9,3.9-214,804-468.5,1777.6C7323.6-835.7,7119.3-89.6,7098-60.6c-23.1,32.8-55.9,50.1-106,54c-84.8,7.7-136.9-30.8-152.3-106c-5.8-28.9,40.5-235.2,102.2-476.2c61.7-235.2,277.6-1058.5,482-1829.6l368.2-1405.5l-59.8-92.5c-194.7-302.7-572.6-485.9-1002.6-485.9c-185.1,0-329.7,44.3-485.8,146.6c-77.1,52-92.5,71.3-102.2,136.9c-5.8,42.4-61.7,680.6-127.2,1417.1l-115.7,1340l-57.8,54c-61.7,55.9-94.5,63.6-156.2,30.9c-96.4-52.1-98.3-38.6,36.6-1528.9l125.3-1386.2l-44.4-36.6c-79.1-61.7-349-183.2-489.7-221.7c-106-27-202.4-34.7-443.4-32.8c-279.6,0-322,5.8-464.6,52.1c-84.8,28.9-208.2,84.9-271.8,127.3l-115.7,75.2l7.7,140.7c3.9,79.1,32.8,715.3,63.6,1415.2c55.9,1237.8,55.9,1274.4,21.2,1320.7c-27,38.6-52.1,48.2-117.6,48.2c-156.2,0-142.7,84.8-212.1-1494.2c-32.8-769.3-61.7-1407.5-65.5-1417.1c-11.6-34.7-190.9-121.5-310.4-154.2c-283.4-73.3-724.9-3.9-948.6,148.5c-102.2,69.4-200.5,208.2-212.1,300.8c-5.8,46.3,115.7,674.8,349,1812.3C2868-772.1,2947.1-357.6,2931.6-328.6c-55.9,100.3-190.9,121.5-252.6,36.6c-25.1-32.8-131.1-491.6-335.5-1455.6c-404.9-1901-408.7-1918.4-422.2-1933.8c-13.5-11.6-746.1,67.5-761.6,82.9c-3.9,5.8,57.8,241,138.8,524.4c300.8,1048.8,462.7,1748.7,601.5,2581.6c46.3,275.7,102.2,572.6,123.4,657.5c109.9,426.1,269.9,765.4,460.8,971.7l123.4,133h1230.1C4931,1269.7,5071.7,1265.8,5098.7,1238.8z M6816.6,1181c61.7-67.5,109.9-198.6,102.2-279.6c-5.8-61.7-11.6-65.6-82.9-71.3c-96.4-7.7-229.4,28.9-214,59.8c71.3,163.9,108,262.2,108,298.8C6729.8,1244.6,6758.7,1242.7,6816.6,1181z M5590.4,999.8c57.8-1.9,77.1-13.5,113.8-69.4c23.1-38.6,42.4-75.2,42.4-82.9c0-7.7-25-54-57.8-100.3c-61.7-94.5-161.9-160-273.8-181.2l-69.4-13.5l-13.5,90.6c-19.3,123.4-1.9,268,36.6,327.8c28.9,44.3,44.4,50.1,92.6,40.5C5493.9,1005.5,5551.8,999.8,5590.4,999.8z"/>

</g>

</g>
</svg>