<?xml version="1.0" standalone="no"?>
<svg xmlns="http://www.w3.org/2000/svg" xmlns:xlink="http://www.w3.org/1999/xlink" fill="#000000" height="128" width="128" version="1.2" baseProfile="tiny" id="Layer_1" viewBox="-236 28 256 256" xml:space="preserve">
<path id="XMLID_65_" d="M-38.6,284c-0.5-28.2-32.1-91.5-39.8-110c0,0,10.2-57,12.1-57c2.4,0,3.9,20.4,3.9,20.4h23.8v-22.8  c0.5-22.3-13.1-39.3-34.5-39.3h-8.4l-23.8-5.7v-7.2c7.8-1.2,13.8-7.9,13.8-16.1c0-9-7.3-16.3-16.3-16.3c-6.6,0-12.5,3.9-15.1,10  c-0.5,1.2,0.1,2.7,1.3,3.2c1.2,0.5,2.7-0.1,3.2-1.3c1.8-4.3,5.9-7,10.6-7c6.3,0,11.5,5.1,11.5,11.5c0,6.3-5,11.3-11.3,11.4h-3.1  v11.7l-25.1,5.8h-7.3c-20.9,0-34.5,17.5-34.5,39.3v22.8h23.8c0,0,1.9-20.4,3.9-20.4c2.4,0,11.7,56.1,11.7,56.1  c-7.8,18.4-38.8,82.3-39.3,111H-38.6z M-108,125c0,0.3-7.6-6.6-14-22.3h27.9C-100.5,118.1-108,124.7-108,125z M-108,73.8l22.2,5.3  c-1.1,4.7-3.4,11.4-6.3,18.6H-124c-2.9-7.3-5.2-14.1-6.3-18.8L-108,73.8z"/>
</svg>